<?xml version="1.0" encoding="UTF-8"?>
<svg version="1.1" xmlns="http://www.w3.org/2000/svg" width="120" height="88">
<path d="M0 0 C0.87892914 -0.01036789 1.75785828 -0.02073578 2.66342163 -0.03141785 C5.56043639 -0.05845202 8.45593232 -0.04882894 11.35302734 -0.03637695 C13.37837137 -0.04229005 15.4037119 -0.04953852 17.42904663 -0.05805969 C21.67423707 -0.06993632 25.9189032 -0.0632433 30.1640625 -0.04394531 C35.57772972 -0.0211409 40.98981861 -0.04774805 46.40332985 -0.08900738 C50.5884346 -0.114721 54.77316911 -0.1119673 58.95832443 -0.10111427 C60.95242108 -0.09963683 62.94654743 -0.1072095 64.94057083 -0.12436485 C85.82805354 -0.27481387 85.82805354 -0.27481387 95.06396484 6.6628418 C102.84137948 14.49203535 105.53020383 22.67870432 105.53271484 33.4987793 C105.54413513 34.87786972 105.54413513 34.87786972 105.55578613 36.28482056 C105.56653524 38.21939393 105.56946149 40.15402509 105.56494141 42.08862305 C105.56396969 45.02321695 105.60563826 47.95518727 105.64990234 50.8894043 C105.76344441 68.87983377 105.76344441 68.87983377 100.06396484 76.6628418 C99.38333984 77.7353418 98.70271484 78.8078418 98.00146484 79.9128418 C92.6312329 85.71948837 84.83359833 88.85429571 77.06037903 89.3662529 C73.26781971 89.49525496 69.48313462 89.49277854 65.68896484 89.4597168 C64.0309193 89.46377056 62.37287725 89.46960359 60.71484375 89.47711182 C57.25860267 89.48590155 53.80329905 89.47328493 50.34716797 89.44506836 C45.94912065 89.41088348 41.55327093 89.43059723 37.15530396 89.46650314 C33.73705928 89.48833609 30.31932323 89.48121561 26.90106201 89.46573639 C25.28098277 89.46177545 23.6608551 89.46649711 22.04083252 89.48061371 C11.99440912 89.54897613 3.54046432 88.70261592 -4.93603516 82.6628418 C-13.9460429 73.53472989 -15.40749375 65.27616999 -15.43994141 52.8112793 C-15.44959616 51.46562387 -15.45968964 50.11997153 -15.47019958 48.77432251 C-15.48808622 45.96527806 -15.4937278 43.15650942 -15.49194336 40.34741211 C-15.49163752 36.75456313 -15.53272332 33.16348009 -15.58425999 29.57105064 C-15.61765821 26.79653846 -15.62370017 24.02245337 -15.62211418 21.24776077 C-15.62735349 19.28176951 -15.6598276 17.31591153 -15.69276428 15.35018921 C-15.67891945 13.55274765 -15.67891945 13.55274765 -15.66479492 11.71899414 C-15.66906998 10.66755219 -15.67334503 9.61611023 -15.67774963 8.5328064 C-14.82753173 5.24300234 -13.53144209 3.62351903 -10.79541302 1.60708618 C-7.30897142 -0.16342694 -3.84219576 -0.04007007 0 0 Z " fill="#4EAF52" transform="translate(14.93603515625,-0.662841796875)"/>
<path d="M0 0 C2.43934225 -0.13501894 4.87124104 -0.23403897 7.3125 -0.3125 C8.34793945 -0.3753418 8.34793945 -0.3753418 9.40429688 -0.43945312 C11.42578125 -0.48828125 11.42578125 -0.48828125 15 0 C18.23896982 4.20212052 19.78124862 9.41002882 21.57421875 14.3515625 C21.90291458 15.24741058 22.23161041 16.14325867 22.57026672 17.06625366 C23.26104227 18.95307629 23.94923934 20.84084468 24.63500977 22.72949219 C25.68733413 25.62454367 26.75031419 28.51552333 27.81445312 31.40625 C28.48501582 33.24195354 29.15495925 35.07788344 29.82421875 36.9140625 C30.14291428 37.77971832 30.4616098 38.64537415 30.78996277 39.53726196 C31.08059097 40.34174774 31.37121918 41.14623352 31.6706543 41.97509766 C31.92807907 42.68171539 32.18550385 43.38833313 32.45072937 44.11636353 C33 46 33 46 33 49 C48.18 49 63.36 49 79 49 C79.99 45.7 80.98 42.4 82 39 C84.64 31.74 87.28 24.48 90 17 C69.54 17 49.08 17 28 17 C28 16.01 28 15.02 28 14 C50.11 14 72.22 14 95 14 C94.23291684 19.36958213 93.24715076 23.55141713 91.27734375 28.46484375 C90.92500671 29.36837585 90.92500671 29.36837585 90.56555176 30.29016113 C89.69773273 32.50916445 88.81687611 34.72305126 87.9375 36.9375 C85.978125 41.908125 84.01875 46.87875 82 52 C65.17 52 48.34 52 31 52 C28.31435617 45.95730138 25.80147834 40.00390314 23.546875 33.80859375 C23.24179016 32.97787857 22.93670532 32.14716339 22.62237549 31.29127502 C21.66204722 28.67439128 20.70595117 26.05598544 19.75 23.4375 C19.09403102 21.64768344 18.43778348 19.85796894 17.78125 18.06835938 C16.18428203 13.71341115 14.59110398 9.3570939 13 5 C8.71 4.67 4.42 4.34 0 4 C0 2.68 0 1.36 0 0 Z " fill="#F3F9F3" transform="translate(8,8)"/>
<path d="M0 0 C2.875 2.125 2.875 2.125 5 5 C5.15129568 9.31192698 4.70478473 11.21466844 1.8125 14.4375 C-1.52215137 16.29008409 -3.2444323 16.63924557 -7 16 C-10.21983624 13.82443497 -10.91057891 12.30738498 -12 8.5625 C-12 5 -12 5 -10.25 2.125 C-6.80308914 -1.13041581 -4.39536876 -1.46512292 0 0 Z " fill="#E9F5EA" transform="translate(49,66)"/>
<path d="M0 0 C2.5 1.5 2.5 1.5 4 4 C4.60443392 6.80917861 4.66040854 9.19757073 4 12 C1.45767292 14.99097304 -0.1574697 15.84202557 -4 16.5625 C-8.13607554 15.78698584 -9.54999553 14.38677089 -12 11 C-12.62491523 7.04220351 -12.61006839 4.99136114 -10.5 1.5625 C-6.97441116 -0.64099302 -4.04985528 -0.79669284 0 0 Z " fill="#ECF6ED" transform="translate(89,66)"/>
<path d="M0 0 C5.56818182 0.56818182 5.56818182 0.56818182 7 2 C7.1875 4.4375 7.1875 4.4375 7 7 C5 9 5 9 2.5 9.25 C0 9 0 9 -2 7 C-2.25 4.5 -2.25 4.5 -2 2 C-1.34 1.34 -0.68 0.68 0 0 Z " fill="#54B259" transform="translate(43,69)"/>
<path d="M0 0 C4.55555556 0.55555556 4.55555556 0.55555556 6 2 C6.125 5 6.125 5 6 8 C5 9 5 9 2 9.125 C-1 9 -1 9 -2 8 C-2.1875 5.0625 -2.1875 5.0625 -2 2 C-1.34 1.34 -0.68 0.68 0 0 Z " fill="#52B257" transform="translate(83,69)"/>
</svg>
